<?xml version="1.0" encoding="UTF-8" standalone="no"?>
<!-- Created with Inkscape (http://www.inkscape.org/) -->

<svg
   xmlns:dc="http://purl.org/dc/elements/1.1/"
   xmlns:cc="http://creativecommons.org/ns#"
   xmlns:rdf="http://www.w3.org/1999/02/22-rdf-syntax-ns#"
   xmlns:svg="http://www.w3.org/2000/svg"
   xmlns="http://www.w3.org/2000/svg"
   xmlns:sodipodi="http://sodipodi.sourceforge.net/DTD/sodipodi-0.dtd"
   xmlns:inkscape="http://www.inkscape.org/namespaces/inkscape"
   width="722.8457"
   height="701.96637"
   id="svg2"
   version="1.1"
   inkscape:version="0.92.4 (unknown)"
   sodipodi:docname="Kuberetes.svg"
   inkscape:export-filename="/home/thockin/src/kubernetes/new.png"
   inkscape:export-xdpi="460.95001"
   inkscape:export-ydpi="460.95001">
  <defs
     id="defs4" />
  <sodipodi:namedview
     id="base"
     pagecolor="#ffffff"
     bordercolor="#666666"
     borderopacity="1.0"
     inkscape:pageopacity="0.0"
     inkscape:pageshadow="2"
     inkscape:zoom="1.0119068"
     inkscape:cx="194.8357"
     inkscape:cy="318.47981"
     inkscape:document-units="px"
     inkscape:current-layer="g3052"
     showgrid="false"
     inkscape:window-width="1881"
     inkscape:window-height="1023"
     inkscape:window-x="1719"
     inkscape:window-y="27"
     inkscape:window-maximized="1"
     inkscape:snap-global="false"
     fit-margin-top="10"
     fit-margin-left="10"
     fit-margin-right="10"
     fit-margin-bottom="10" />
  <metadata
     id="metadata7">
    <rdf:RDF>
      <cc:Work
         rdf:about="">
        <dc:format>image/svg+xml</dc:format>
        <dc:type
           rdf:resource="http://purl.org/dc/dcmitype/StillImage" />
        <dc:title></dc:title>
      </cc:Work>
    </rdf:RDF>
  </metadata>
  <g
     inkscape:label="Layer 1"
     inkscape:groupmode="layer"
     id="layer1"
     transform="translate(-6.3260942,-174.7524)">
    <g
       id="g3052">
      <path
         style="fill:#000000;fill-opacity:1;stroke:#ffffff;stroke-width:0;stroke-miterlimit:4;stroke-opacity:0;stroke-dasharray:none"
         d="M 349.62695 338.96289 L 334.9707 357.21289 L 340.2207 380.02539 L 361.4082 390.21289 L 382.5332 380.05664 L 387.7832 357.24414 L 373.1582 338.96289 L 349.62695 338.96289 z "
         id="path105"
         transform="translate(6.3260942,174.7524)" />
      <g
         id="g45"
         style="fill:#ffffff">
        <path
           transform="translate(6.3260942,174.7524)"
           id="path111"
           d="M 360.93945 432.80664 C 359.82601 432.84755 358.72712 433.03447 357.66992 433.35547 C 356.61273 433.67647 355.59608 434.13183 354.65039 434.71289 C 353.7047 435.29395 352.82971 436.00117 352.05078 436.82227 C 351.27185 437.64336 350.59012 438.57804 350.0332 439.61914 L 349.9707 439.61914 L 312.8457 506.74414 C 316.05728 507.83847 319.3093 508.82631 322.59961 509.70508 C 325.88992 510.58385 329.21724 511.35486 332.57617 512.01172 C 335.9351 512.66858 339.32672 513.21202 342.74414 513.64062 C 346.16156 514.06923 349.60452 514.38216 353.07031 514.57617 C 356.5361 514.77018 360.02525 514.84577 363.5293 514.79883 C 367.03334 514.75189 370.55377 514.5833 374.08594 514.28906 C 377.61811 513.99483 381.16076 513.57522 384.71094 513.02734 C 388.26112 512.47947 391.81889 511.802 395.37695 510.99414 C 400.45586 509.84097 405.42166 508.45712 410.25195 506.83789 L 373.0332 439.58789 L 372.75195 439.58789 C 372.12969 438.42449 371.32332 437.35782 370.35352 436.42773 C 369.38371 435.49765 368.25046 434.70416 366.9707 434.08789 C 365.9944 433.61776 364.99115 433.27848 363.98047 433.06641 C 362.96979 432.85433 361.95168 432.76944 360.93945 432.80664 z "
           style="fill:#ffffff;fill-opacity:1;stroke:#ffffff;stroke-width:0;stroke-miterlimit:4;stroke-opacity:0;stroke-dasharray:none" />
        <path
           transform="translate(6.3260942,174.7524)"
           id="path109"
           d="M 297.1582 401.83789 C 296.32795 401.82624 295.47146 401.90123 294.62695 402.05664 L 294.50195 401.90039 L 219.00195 414.71289 C 220.45845 418.74269 222.07179 422.67952 223.83594 426.51758 C 225.60009 430.35564 227.51439 434.09495 229.56836 437.73047 C 231.62233 441.36599 233.81663 444.89812 236.14258 448.32031 C 238.46853 451.7425 240.92575 455.05585 243.50586 458.25391 C 246.08596 461.45197 248.78904 464.53491 251.60547 467.49805 C 254.42189 470.46118 257.3518 473.30408 260.38672 476.02148 C 263.42163 478.73889 266.5613 481.33013 269.79688 483.79102 C 273.03245 486.25191 276.36481 488.58182 279.7832 490.77539 L 309.0332 420.08789 L 308.81445 419.80664 C 309.33608 418.59477 309.67248 417.30396 309.80078 415.96875 C 309.92909 414.63354 309.8493 413.25393 309.5332 411.86914 C 309.19561 410.39014 308.61512 409.02973 307.8457 407.81836 C 307.07629 406.60698 306.11682 405.54508 305.01758 404.66602 C 303.91834 403.78695 302.6806 403.08948 301.35352 402.60742 C 300.02643 402.12536 298.61114 401.85827 297.1582 401.83789 z "
           style="fill:#ffffff;fill-opacity:1;stroke:#ffffff;stroke-width:0;stroke-miterlimit:4;stroke-opacity:0;stroke-dasharray:none" />
        <path
           transform="translate(6.3260942,174.7524)"
           id="path107"
           d="M 425.06445 401.52539 C 424.23115 401.56751 423.39641 401.69667 422.57031 401.91016 C 421.74422 402.12364 420.92678 402.42144 420.12695 402.80664 C 419.34595 403.18279 418.62008 403.62821 417.95312 404.13086 C 417.28617 404.6335 416.6783 405.19305 416.13281 405.80078 C 415.04184 407.01625 414.2011 408.42229 413.64062 409.92969 C 413.08015 411.43708 412.79864 413.04576 412.82812 414.67383 C 412.85761 416.3019 413.19805 417.94789 413.87695 419.52539 L 413.7832 419.65039 L 443.3457 491.05664 C 446.9077 488.78744 450.35737 486.37816 453.68945 483.83789 C 457.02154 481.29762 460.23576 478.62662 463.32617 475.83398 C 466.41658 473.04135 469.38374 470.12787 472.2207 467.10156 C 475.05767 464.07525 477.76419 460.93659 480.33594 457.69531 C 482.90769 454.45404 485.34391 451.10942 487.63867 447.67188 C 489.93344 444.23433 492.08579 440.703 494.0918 437.08789 C 496.09781 433.47278 497.95663 429.77397 499.66211 426 C 501.36759 422.22603 502.92127 418.37703 504.31445 414.46289 L 428.1582 401.58789 L 428.0332 401.74414 C 427.06003 401.56499 426.06442 401.47489 425.06445 401.52539 z "
           style="fill:#ffffff;fill-opacity:1;stroke:#ffffff;stroke-width:0;stroke-miterlimit:4;stroke-opacity:0;stroke-dasharray:none" />
        <path
           transform="translate(6.3260942,174.7524)"
           id="path103"
           d="M 349.62695 338.96289 L 373.1582 338.96289 L 387.7832 357.24414 L 382.5332 380.05664 L 361.4082 390.21289 L 340.2207 380.02539 L 334.9707 357.21289 L 349.62695 338.96289 z "
           style="fill:#ffffff;fill-opacity:1;stroke:#ffffff;stroke-width:0;stroke-miterlimit:4;stroke-opacity:0;stroke-dasharray:none" />
        <path
           transform="translate(6.3260942,174.7524)"
           id="path101"
           d="M 490.2832 283.65039 L 433.1582 334.77539 L 433.18945 334.93164 C 432.19369 335.7972 431.32831 336.8165 430.63281 337.96484 C 429.93732 339.11319 429.41172 340.39058 429.0957 341.77539 C 428.90287 342.6205 428.79678 343.46589 428.77344 344.30078 C 428.7501 345.13567 428.80916 345.96014 428.94336 346.76562 C 429.21175 348.3766 429.78258 349.91075 430.60938 351.28906 C 431.43617 352.66738 432.51906 353.89057 433.80859 354.88281 C 435.09813 355.87506 436.59533 356.63513 438.25195 357.08789 L 438.31445 357.40039 L 512.31445 378.71289 C 512.70633 374.72182 512.94011 370.6967 513.01172 366.64453 C 513.08332 362.59236 512.99126 358.51289 512.73242 354.41602 C 512.47358 350.31914 512.04868 346.20525 511.44922 342.08008 C 510.84976 337.95491 510.07722 333.81871 509.12695 329.68164 C 508.16515 325.49436 507.03998 321.38902 505.75977 317.36914 C 504.47955 313.34927 503.04453 309.41482 501.46289 305.57227 C 499.88125 301.72971 498.15318 297.97953 496.28711 294.32422 C 494.42103 290.66891 492.41673 287.10853 490.2832 283.65039 z "
           style="fill:#ffffff;fill-opacity:1;stroke:#ffffff;stroke-width:0;stroke-miterlimit:4;stroke-opacity:0;stroke-dasharray:none" />
        <path
           transform="translate(6.3260942,174.7524)"
           id="path99"
           d="M 232.12695 283.61914 C 229.99615 287.0904 228.00506 290.64781 226.16016 294.2832 C 224.31525 297.91859 222.61622 301.63245 221.06836 305.41406 C 219.5205 309.19568 218.12443 313.04513 216.88477 316.95508 C 215.6451 320.86503 214.56096 324.83509 213.64062 328.85547 C 212.72029 332.87585 211.96291 336.94763 211.37305 341.06055 C 210.78318 345.17347 210.36153 349.32807 210.11328 353.51562 C 209.86503 357.70318 209.79002 361.92367 209.89453 366.16797 C 209.99904 370.41227 210.28354 374.67974 210.75195 378.96289 L 284.37695 357.71289 L 284.43945 357.46289 C 285.71216 357.11514 286.93997 356.56902 288.07227 355.83203 C 289.20456 355.09504 290.24135 354.16717 291.12695 353.05664 C 291.66744 352.37888 292.12699 351.66344 292.50977 350.92188 C 292.89254 350.18031 293.1981 349.41392 293.42578 348.63086 C 293.88115 347.06474 294.02825 345.43803 293.87891 343.83984 C 293.72956 342.24166 293.28395 340.67048 292.55078 339.21875 C 291.81762 337.76702 290.79805 336.43338 289.50195 335.30664 L 289.56445 334.99414 L 232.12695 283.61914 z "
           style="fill:#ffffff;fill-opacity:1;stroke:#ffffff;stroke-width:0;stroke-miterlimit:4;stroke-opacity:0;stroke-dasharray:none" />
        <path
           transform="translate(6.3260942,174.7524)"
           id="path97"
           d="M 379.75195 212.74414 L 384.0957 289.33789 L 384.1582 289.36914 C 384.21409 290.68732 384.47367 291.99974 384.94141 293.25977 C 385.40914 294.51979 386.08504 295.72741 386.9707 296.83789 C 387.51121 297.51556 388.10576 298.12564 388.74414 298.66406 C 389.38252 299.20248 390.06359 299.66975 390.77734 300.06641 C 392.20484 300.85973 393.7615 301.36686 395.35547 301.57812 C 396.94944 301.78939 398.58169 301.70527 400.16211 301.31445 C 401.74253 300.92364 403.27134 300.22581 404.6582 299.21289 L 404.87695 299.30664 L 467.37695 254.99414 C 464.42945 252.10774 461.36815 249.34666 458.20508 246.7168 C 455.042 244.08693 451.77635 241.58837 448.41602 239.22656 C 445.05568 236.86475 441.60177 234.64083 438.0625 232.55859 C 434.52323 230.47636 430.89911 228.53723 427.19922 226.74609 C 423.49933 224.95495 419.72305 223.31079 415.88086 221.82227 C 412.03867 220.33374 408.13024 219.00056 404.16406 217.82617 C 400.19789 216.65179 396.1734 215.63583 392.10156 214.78711 C 388.02972 213.93839 383.91114 213.25568 379.75195 212.74414 z "
           style="fill:#ffffff;fill-opacity:1;stroke:#ffffff;stroke-width:0;stroke-miterlimit:4;stroke-opacity:0;stroke-dasharray:none" />
        <path
           transform="translate(6.3260942,174.7524)"
           id="path95"
           d="M 343.0957 212.74414 C 337.91161 213.37254 332.70794 214.24961 327.50195 215.43164 C 323.9395 216.2405 320.43559 217.16841 316.99414 218.20898 C 313.55269 219.24956 310.17348 220.40395 306.85938 221.66602 C 303.54527 222.92808 300.29565 224.29815 297.11523 225.77148 C 293.93482 227.24482 290.82357 228.8217 287.7832 230.49609 C 284.74284 232.17048 281.77288 233.94142 278.87891 235.80664 C 275.98493 237.67186 273.16702 239.62995 270.42578 241.67578 C 267.68455 243.72161 265.0216 245.85604 262.43945 248.07227 C 259.85731 250.28849 257.35616 252.5865 254.93945 254.96289 L 317.8457 299.55664 L 317.9707 299.49414 C 319.03611 300.27237 320.22301 300.88987 321.5 301.3125 C 322.77699 301.73513 324.14405 301.96289 325.56445 301.96289 C 326.43133 301.96289 327.27697 301.8781 328.0957 301.71484 C 328.91443 301.55158 329.70626 301.31051 330.46094 301 C 331.97029 300.37897 333.33446 299.47924 334.49219 298.36523 C 335.64991 297.25122 336.60041 295.92231 337.2793 294.44336 C 337.95818 292.96441 338.36662 291.33498 338.43945 289.61914 L 338.75195 289.46289 L 343.0957 212.74414 z "
           style="fill:#ffffff;fill-opacity:1;stroke:#ffffff;stroke-width:0;stroke-miterlimit:4;stroke-opacity:0;stroke-dasharray:none" />
        <path
           transform="translate(6.3260942,174.7524)"
           id="path3055"
           d="M 363.64844 10.054688 A 46.724621 46.342246 0 0 0 358.98633 10.060547 A 46.724621 46.342246 0 0 0 341.08008 14.591797 L 96.736328 131.3418 A 46.724621 46.342246 0 0 0 71.455078 162.7793 L 11.173828 425.0293 A 46.724621 46.342246 0 0 0 17.517578 460.56055 A 46.724621 46.342246 0 0 0 20.173828 464.24805 L 189.29883 674.5293 A 46.724621 46.342246 0 0 0 225.83008 691.9668 L 497.04883 691.9043 A 46.724621 46.342246 0 0 0 533.58008 674.49805 L 702.64258 464.18555 A 46.724621 46.342246 0 0 0 711.67383 424.9668 L 651.29883 162.7168 A 46.724621 46.342246 0 0 0 626.01758 131.2793 L 381.64258 14.591797 A 46.724621 46.342246 0 0 0 363.64844 10.054688 z M 361.4082 99.306641 C 362.41782 99.306538 363.40345 99.420297 364.35547 99.636719 C 365.30748 99.853141 366.2248 100.17284 367.09961 100.58398 C 367.97442 100.99513 368.80597 101.49795 369.58398 102.08203 C 370.362 102.66611 371.08642 103.3312 371.74805 104.06641 C 372.40967 104.80162 373.00951 105.60811 373.53516 106.47266 C 374.0608 107.3372 374.51275 108.26034 374.88281 109.23242 C 375.25288 110.2045 375.53949 111.22538 375.73438 112.2832 C 375.92926 113.34102 376.03308 114.43488 376.0332 115.55664 C 376.0379 116.82888 376.10825 118.53626 376.06445 119.71289 C 375.96814 122.30089 375.63713 124.58489 375.24609 126.81836 C 374.85506 129.05183 374.404 131.23476 374.06445 133.61914 C 373.44931 138.72247 372.87495 143.38968 372.53516 147.76367 C 372.36526 149.95067 372.25395 152.06452 372.22461 154.12305 C 372.19527 156.18158 372.24916 158.18442 372.4082 160.15039 C 372.55266 161.1343 372.80426 161.96955 373.13086 162.69727 C 373.45746 163.42498 373.85822 164.04538 374.30078 164.59961 C 375.1859 165.70807 376.2376 166.55207 377.18945 167.46289 C 377.23275 168.52297 377.40314 172.04542 377.5332 173.99414 C 383.34588 174.5105 389.10569 175.29418 394.79883 176.33594 C 400.49197 177.3777 406.11839 178.67752 411.66016 180.22461 C 417.20193 181.7717 422.65902 183.56726 428.01758 185.59961 C 433.37613 187.63196 438.6358 189.9009 443.7793 192.39844 C 448.92279 194.89597 453.95106 197.6218 458.84766 200.56445 C 463.74425 203.50711 468.5091 206.66746 473.12695 210.03516 C 477.74481 213.40285 482.21616 216.97733 486.52344 220.75 C 490.83071 224.52267 494.9746 228.49282 498.93945 232.65039 L 504.50195 228.68164 C 505.4445 228.73716 506.95341 228.90906 508.58203 228.85938 C 509.39634 228.83453 510.24089 228.75306 511.05859 228.57617 C 511.8763 228.39928 512.66795 228.12566 513.37695 227.71289 C 515.01312 226.6114 516.61119 225.4047 518.20312 224.09766 C 519.79506 222.79061 521.37935 221.38394 522.98438 219.88672 C 526.19442 216.89227 529.48946 213.53212 533.0957 209.86914 C 534.7481 208.11696 536.1793 206.40729 537.68945 204.71289 C 539.1996 203.01849 540.7887 201.33937 542.75195 199.65039 C 543.64842 198.87916 545.00339 197.84749 546.00195 197.05664 C 546.87888 196.3571 547.79798 195.75504 548.74609 195.24805 C 549.69421 194.74106 550.67002 194.32996 551.66016 194.01367 C 552.65029 193.69739 553.65523 193.47508 554.6582 193.34766 C 555.66118 193.22024 556.66179 193.18845 557.64844 193.24805 C 558.63509 193.30765 559.60768 193.4603 560.54883 193.70508 C 561.48998 193.94986 562.4011 194.28673 563.26758 194.71484 C 564.13405 195.14296 564.95612 195.66187 565.71875 196.27148 C 566.48138 196.88109 567.18485 197.57988 567.81445 198.36914 C 568.44406 199.1584 568.96841 199.99977 569.39258 200.87891 C 569.81675 201.75804 570.13965 202.67511 570.36328 203.61523 C 570.58691 204.55536 570.71225 205.51996 570.74023 206.49219 C 570.76822 207.46442 570.69989 208.44447 570.53711 209.41992 C 570.37433 210.39538 570.11623 211.36465 569.76758 212.31445 C 569.41893 213.26425 568.97885 214.19458 568.44922 215.08984 C 567.91959 215.98511 567.30142 216.84636 566.5957 217.6582 C 565.88998 218.47005 565.09763 219.2321 564.2207 219.93164 C 563.23085 220.7278 561.9442 221.82963 561.00195 222.52539 C 558.9186 224.06378 556.91723 225.22702 554.91797 226.31055 C 552.9187 227.39407 550.92154 228.39788 548.8457 229.61914 C 544.47235 232.32028 540.47095 234.79178 536.8457 237.26172 C 535.03308 238.49669 533.31477 239.73042 531.68945 240.99414 C 530.06413 242.25786 528.53354 243.55022 527.0957 244.90039 C 526.41655 245.62682 525.91936 246.34517 525.55273 247.05273 C 525.18611 247.76029 524.95016 248.45695 524.79102 249.14648 C 524.47274 250.52556 524.46428 251.86956 524.3457 253.18164 C 523.53439 253.92698 520.67325 256.4606 519.1582 257.83789 C 522.30967 262.52862 525.26347 267.37808 528.00586 272.37695 C 530.74825 277.37582 533.27839 282.52446 535.58203 287.81445 C 537.88567 293.10445 539.96167 298.53551 541.79688 304.09961 C 543.63208 309.6637 545.22736 315.36046 546.56445 321.18164 C 547.88922 326.94912 548.93424 332.71679 549.70898 338.46875 C 550.48373 344.22071 550.98746 349.95738 551.23047 355.66602 C 551.47348 361.37465 551.45597 367.05584 551.18555 372.69336 C 550.91512 378.33088 550.39252 383.92429 549.62695 389.46289 L 555.5332 391.18164 C 556.06396 391.9329 556.87363 393.22136 557.93555 394.4707 C 558.4665 395.09537 559.0602 395.711 559.71289 396.24414 C 560.36559 396.77728 561.07864 397.22782 561.8457 397.52539 C 563.72702 398.11784 565.66577 398.61715 567.67773 399.04883 C 569.68969 399.48051 571.77343 399.84593 573.94141 400.16992 C 578.27737 400.8179 582.95217 401.3022 588.06445 401.83789 C 590.46462 402.03734 592.69907 402.07854 594.9707 402.18945 C 597.24233 402.30037 599.55114 402.481 602.0957 402.96289 C 603.31345 403.19351 605.09177 403.67776 606.3457 403.96289 C 607.42329 404.22295 608.45288 404.5748 609.42578 405.00586 C 610.39868 405.43692 611.31433 405.94858 612.16602 406.52734 C 613.0177 407.10611 613.80363 407.7519 614.51758 408.45508 C 615.23153 409.15825 615.87391 409.91836 616.43359 410.72266 C 616.99328 411.52695 617.47047 412.37568 617.85938 413.25781 C 618.24828 414.13994 618.5484 415.05552 618.75 415.99219 C 618.9516 416.92885 619.05497 417.88755 619.05273 418.85547 C 619.0505 419.82338 618.9433 420.79952 618.7207 421.77539 C 618.49806 422.75149 618.17158 423.68124 617.75391 424.55469 C 617.33623 425.42813 616.82603 426.24503 616.23828 427.00195 C 615.65053 427.75888 614.98481 428.45549 614.25195 429.08203 C 613.51909 429.70857 612.7202 430.26576 611.86719 430.74805 C 611.01417 431.23033 610.10641 431.63677 609.1582 431.96094 C 608.20999 432.28511 607.22157 432.5275 606.20312 432.67969 C 605.18468 432.83188 604.13599 432.89499 603.07227 432.86133 C 602.00854 432.82767 600.92975 432.69626 599.8457 432.46289 C 599.7831 432.44859 599.69225 432.44624 599.62695 432.43164 C 599.529 432.40934 599.4429 432.36169 599.3457 432.33789 C 598.13683 432.07259 596.62194 431.80848 595.56445 431.52539 C 593.06275 430.85571 590.90606 430.02149 588.8125 429.13867 C 586.71894 428.25585 584.68853 427.32442 582.43945 426.46289 C 577.60089 424.72776 573.1776 423.13598 568.98828 421.83594 C 566.89362 421.18592 564.85608 420.608 562.85547 420.12305 C 560.85485 419.6381 558.89153 419.24523 556.93945 418.96289 C 555.94806 418.88482 555.07655 418.94536 554.29492 419.10156 C 553.5133 419.25777 552.82171 419.5106 552.18359 419.81836 C 550.90736 420.43387 549.85172 421.26879 548.75195 421.99414 C 547.68349 421.77975 544.39435 421.19781 542.50195 420.90039 C 540.75021 426.40554 538.74984 431.81881 536.51367 437.12305 C 534.27751 442.42729 531.8057 447.6226 529.10547 452.69336 C 526.40524 457.76412 523.47793 462.7109 520.33398 467.51562 C 517.19004 472.32035 513.82902 476.98412 510.26172 481.49023 C 506.69442 485.99635 502.91952 490.34459 498.94922 494.51953 C 494.97892 498.69447 490.81193 502.69466 486.45898 506.50586 C 482.10604 510.31706 477.5668 513.93862 472.85156 517.35352 C 468.13632 520.76841 463.24663 523.97687 458.18945 526.96289 C 458.88814 528.64905 460.07317 532.23437 460.62695 532.86914 C 460.16459 534.10277 459.58553 535.31032 459.27148 536.68359 C 459.11446 537.37023 459.02445 538.09877 459.04688 538.89258 C 459.0693 539.68638 459.20518 540.545 459.50195 541.49414 C 460.21172 543.3344 461.03096 545.16467 461.94727 547.00977 C 462.86357 548.85486 463.87703 550.71628 464.97461 552.61719 C 467.16976 556.419 469.7021 560.38193 472.4707 564.71289 C 473.81123 566.71378 475.16686 568.48285 476.49023 570.32422 C 477.81361 572.16559 479.10472 574.07926 480.31445 576.36914 C 480.8934 577.465 481.66181 579.1485 482.2207 580.30664 C 482.69083 581.31181 483.05776 582.33755 483.32812 583.36719 C 483.59849 584.39682 483.77095 585.4303 483.84961 586.45703 C 483.92827 587.48377 483.91359 588.50353 483.80859 589.5 C 483.7036 590.49647 483.50911 591.4713 483.22852 592.41016 C 482.94792 593.34901 482.58095 594.2516 482.13281 595.10547 C 481.68468 595.95934 481.1545 596.76434 480.54688 597.50586 C 479.93925 598.24738 479.25515 598.92553 478.49609 599.52734 C 477.73704 600.12915 476.90439 600.65315 476.00195 601.08789 C 475.09237 601.52607 474.15452 601.85185 473.20312 602.07031 C 472.25173 602.28878 471.28647 602.40037 470.32031 602.41016 C 469.35415 602.41994 468.38748 602.32848 467.43359 602.14062 C 466.47971 601.95277 465.53761 601.66939 464.62305 601.29492 C 463.70848 600.92045 462.82086 600.45435 461.97266 599.9043 C 461.12445 599.35424 460.31534 598.72046 459.56055 598.00586 C 458.80575 597.29126 458.10505 596.49703 457.4707 595.62891 C 456.83636 594.76079 456.27006 593.81725 455.7832 592.80664 C 455.2267 591.6615 454.44304 590.13859 453.9707 589.05664 C 452.93451 586.68318 452.23651 584.47923 451.61523 582.29492 C 450.99395 580.11061 450.44939 577.94595 449.7207 575.65039 C 448.06053 570.7856 446.54772 566.34088 444.95312 562.25977 C 444.15583 560.21921 443.33855 558.26901 442.4707 556.4043 C 441.60286 554.53959 440.6858 552.75889 439.68945 551.05664 C 439.13238 550.23286 438.54249 549.5898 437.93359 549.07422 C 437.3247 548.55864 436.69632 548.17084 436.05859 547.86133 C 434.78314 547.2423 433.4735 546.93298 432.2207 546.52539 C 431.75683 545.72609 430.02668 542.55172 429.0957 540.90039 C 425.05605 542.42692 420.94703 543.82655 416.76562 545.08984 C 412.58422 546.35314 408.33044 547.48011 404.00195 548.46289 C 399.25841 549.53992 394.51415 550.42924 389.77734 551.13281 C 385.04054 551.83638 380.3098 552.35512 375.5957 552.69531 C 370.88161 553.03551 366.18321 553.19669 361.50781 553.18359 C 356.83241 553.1705 352.18128 552.98326 347.56055 552.62695 C 342.93982 552.27064 338.34891 551.74413 333.79883 551.05469 C 329.24874 550.36525 324.73885 549.51249 320.27539 548.5 C 315.81193 547.48751 311.39602 546.3157 307.03516 544.99023 C 302.6743 543.66477 298.36923 542.18499 294.12695 540.55664 L 290.81445 546.55664 C 289.58165 546.88671 288.37023 547.22014 287.28516 547.6875 C 286.20009 548.15486 285.24106 548.75684 284.51172 549.62695 C 283.17999 551.21572 282.04794 553.04517 281.03906 555.04688 C 280.03019 557.04858 279.14327 559.22239 278.30273 561.50195 C 276.62166 566.06108 275.12426 571.04032 273.18945 575.90039 C 272.46088 578.19599 271.92408 580.36064 271.31055 582.54492 C 270.69702 584.72921 270.00677 586.93313 268.9707 589.30664 C 268.50173 590.38102 267.71413 591.88284 267.1582 593.02539 C 267.1542 593.03409 267.1622 593.04764 267.1582 593.05664 C 267.1527 593.06804 267.13295 593.07649 267.12695 593.08789 C 266.63907 594.09522 266.06988 595.03511 265.43555 595.90039 C 264.80122 596.76567 264.1016 597.5573 263.34766 598.26953 C 262.59371 598.98176 261.78619 599.61394 260.93945 600.16211 C 260.09272 600.71028 259.20566 601.17377 258.29297 601.54688 C 257.38027 601.91998 256.44206 602.2036 255.49023 602.39062 C 254.53841 602.57765 253.57349 602.66826 252.60938 602.6582 C 251.64526 602.64815 250.68201 602.5365 249.73242 602.31836 C 248.78284 602.10022 247.84767 601.77513 246.93945 601.33789 C 246.0369 600.90338 245.20438 600.379 244.44531 599.77734 C 243.68625 599.17569 243.00014 598.4973 242.39258 597.75586 C 241.78502 597.01442 241.25468 596.20931 240.80664 595.35547 C 240.3586 594.50163 239.99339 593.59903 239.71289 592.66016 C 239.43239 591.72128 239.23775 590.74654 239.13281 589.75 C 239.02787 588.75346 239.0112 587.73582 239.08984 586.70898 C 239.16848 585.68215 239.34109 584.64694 239.61133 583.61719 C 239.88157 582.58744 240.25085 581.56194 240.7207 580.55664 C 241.27952 579.39846 242.0168 577.71503 242.5957 576.61914 C 243.80531 574.3292 245.09454 572.40774 246.41797 570.55859 C 247.7414 568.70944 249.09903 566.9326 250.43945 564.93164 C 253.20783 560.60054 255.80781 556.49224 258.07031 552.54688 C 259.20156 550.57419 260.24791 548.64307 261.18945 546.74414 C 262.13099 544.84521 262.96611 542.97897 263.67578 541.13867 C 263.85408 540.52752 263.92187 539.86051 263.9082 539.16406 C 263.89454 538.46761 263.79961 537.74179 263.65234 537.01562 C 263.35782 535.5633 262.85566 534.10685 262.37695 532.86914 L 265.0332 526.49414 C 260.167 523.61071 255.42898 520.51457 250.83398 517.21289 C 246.23899 513.91121 241.78711 510.40557 237.49414 506.70508 C 233.20117 503.00458 229.06561 499.10918 225.10547 495.0293 C 221.14533 490.94942 217.36016 486.68397 213.76367 482.24414 C 210.16718 477.80431 206.76063 473.18856 203.55859 468.4082 C 200.35656 463.62784 197.35879 458.68348 194.58203 453.58203 C 191.80527 448.48058 189.24841 443.22343 186.92773 437.82031 C 184.60706 432.41719 182.52323 426.86699 180.68945 421.18164 L 174.31445 422.27539 C 173.45988 421.7971 172.17363 420.99243 170.69336 420.33789 C 169.95322 420.01062 169.16485 419.72091 168.35742 419.5293 C 167.54999 419.33768 166.7235 419.24279 165.9082 419.30664 C 163.95614 419.58909 161.99086 419.98187 159.99023 420.4668 C 157.98961 420.95173 155.9521 421.52972 153.85742 422.17969 C 149.66807 423.47962 145.24667 425.07126 140.4082 426.80664 C 138.15917 427.66829 136.12873 428.59185 134.03516 429.4668 C 131.94158 430.34174 129.78487 431.16808 127.2832 431.83789 C 126.22572 432.12104 124.7108 432.41628 123.50195 432.68164 C 123.40479 432.70544 123.3186 432.75299 123.2207 432.77539 C 123.15545 432.78989 123.06455 432.79234 123.00195 432.80664 C 121.91797 433.0403 120.83708 433.17127 119.77344 433.20508 C 118.7098 433.23888 117.66289 433.17559 116.64453 433.02344 C 115.62617 432.87128 114.63563 432.63085 113.6875 432.30664 C 112.73937 431.98243 111.83344 431.57417 110.98047 431.0918 C 110.1275 430.60942 109.32856 430.05242 108.5957 429.42578 C 107.86284 428.79914 107.19524 428.10271 106.60742 427.3457 C 106.01961 426.5887 105.51158 425.76996 105.09375 424.89648 C 104.67592 424.02301 104.34985 423.09518 104.12695 422.11914 C 103.90411 421.14333 103.79533 420.16704 103.79297 419.19922 C 103.79061 418.23139 103.89413 417.2725 104.0957 416.33594 C 104.29727 415.39937 104.59738 414.4836 104.98633 413.60156 C 105.37527 412.71952 105.85234 411.87065 106.41211 411.06641 C 106.97188 410.26217 107.61409 409.50395 108.32812 408.80078 C 109.04216 408.09761 109.82794 407.44993 110.67969 406.87109 C 111.53144 406.29226 112.44896 405.78084 113.42188 405.34961 C 114.39479 404.91838 115.42444 404.56699 116.50195 404.30664 C 116.56614 404.29204 116.6539 404.25964 116.7207 404.24414 C 116.7633 404.23454 116.8031 404.22189 116.8457 404.21289 C 118.07123 403.92541 119.63187 403.51882 120.75195 403.30664 C 123.29649 402.82462 125.60336 402.64405 127.875 402.5332 C 130.14664 402.42235 132.38305 402.38122 134.7832 402.18164 C 139.89546 401.64569 144.56831 401.16153 148.9043 400.51367 C 151.07229 400.18974 153.15601 399.82424 155.16797 399.39258 C 157.17993 398.96092 159.12067 398.46169 161.00195 397.86914 C 161.59843 397.62439 162.18713 397.23557 162.76172 396.75781 C 163.33631 396.28006 163.89649 395.71477 164.43164 395.11328 C 165.50194 393.9103 166.47605 392.5677 167.2832 391.52539 L 173.4082 389.74414 C 172.55031 383.80314 171.97971 377.87633 171.68945 371.97852 C 171.39919 366.08071 171.38863 360.21204 171.64648 354.38867 C 171.90434 348.56531 172.43229 342.78798 173.21875 337.07031 C 174.00521 331.35264 175.05017 325.69596 176.3457 320.11523 C 177.64124 314.53451 179.1856 309.02972 180.9707 303.61719 C 182.7558 298.20465 184.78197 292.88301 187.03711 287.66992 C 189.29225 282.45683 191.77675 277.35154 194.48242 272.36914 C 197.18809 267.38674 200.11528 262.5271 203.25195 257.80664 L 198.56445 253.61914 C 198.41499 252.70685 198.24048 251.19727 197.82422 249.61523 C 197.61609 248.82422 197.34755 248.0146 196.99023 247.25391 C 196.63291 246.49321 196.18846 245.78018 195.62695 245.18164 C 194.18905 243.83154 192.65656 242.53913 191.03125 241.27539 C 189.40594 240.01165 187.68759 238.77799 185.875 237.54297 C 182.24983 235.07293 178.25045 232.6013 173.87695 229.90039 C 171.80105 228.67924 169.81173 227.67538 167.82031 226.5918 C 165.8289 225.50822 163.83539 224.34492 161.75195 222.80664 C 160.86566 222.15227 159.68492 221.15076 158.7207 220.36914 C 158.64897 220.31367 158.57315 220.26959 158.50195 220.21289 C 157.62484 219.51358 156.83078 218.75113 156.125 217.93945 C 155.41922 217.12777 154.80109 216.26821 154.27148 215.37305 C 153.74188 214.47788 153.30169 213.54742 152.95312 212.59766 C 152.60456 211.64789 152.34823 210.6786 152.18555 209.70312 C 152.02286 208.72765 151.95436 207.74573 151.98242 206.77344 C 152.01048 205.80114 152.13377 204.83866 152.35742 203.89844 C 152.58107 202.95821 152.90403 202.04138 153.32812 201.16211 C 153.75222 200.28284 154.2788 199.43981 154.9082 198.65039 C 155.61628 197.76229 156.41672 196.98616 157.29102 196.32422 C 158.16531 195.66227 159.11231 195.11572 160.11133 194.68359 C 161.11035 194.25147 162.1619 193.93498 163.24414 193.73633 C 164.32638 193.53768 165.44048 193.45566 166.56445 193.49414 C 168.31285 193.55401 170.09232 193.90294 171.81836 194.54297 C 173.5444 195.18299 175.21701 196.11411 176.75195 197.33789 C 177.74937 198.12709 179.11023 199.16457 180.00195 199.93164 C 181.96529 201.62051 183.54458 203.29969 185.04688 204.99414 C 186.54917 206.68859 187.97446 208.3983 189.62695 210.15039 C 193.23339 213.81318 196.52636 217.16562 199.73633 220.15234 C 201.34131 221.64571 202.92566 223.04744 204.51758 224.35156 C 206.1095 225.65569 207.70948 226.86148 209.3457 227.96289 C 210.20503 228.4634 211.01358 228.78974 211.78516 228.99023 C 212.55673 229.19073 213.29014 229.2652 213.99805 229.26758 C 215.41386 229.27234 216.72762 228.98295 218.0332 228.80664 C 218.87347 229.4275 221.69923 231.45471 223.31445 232.55664 C 226.42601 229.25531 229.6593 226.06171 233.00977 222.98242 C 236.36023 219.90313 239.82672 216.93893 243.40625 214.09766 C 246.98578 211.25638 250.67784 208.53846 254.47656 205.95117 C 258.27529 203.36388 262.18139 200.90718 266.18945 198.58984 C 270.19751 196.27251 274.30808 194.0939 278.51562 192.0625 C 282.72317 190.0311 287.02667 188.14747 291.42383 186.41797 C 295.82099 184.68847 300.31175 183.11279 304.88867 181.70117 C 309.4656 180.28955 314.13013 179.04066 318.87695 177.96289 C 323.28953 176.96101 327.70415 176.12738 332.11328 175.45312 C 336.52241 174.77887 340.92604 174.26398 345.31445 173.90039 L 345.6582 167.71289 C 346.63176 166.77035 347.66448 165.6222 348.53125 164.33789 C 349.39802 163.05358 350.09886 161.63309 350.4082 160.15039 C 350.56725 158.18442 350.62211 156.18158 350.5957 154.12305 C 350.5693 152.06452 350.46091 149.95067 350.29492 147.76367 C 349.96294 143.38968 349.39834 138.72247 348.7832 133.61914 C 348.44365 131.23476 347.99064 129.05183 347.59961 126.81836 C 347.20857 124.58489 346.87951 122.30089 346.7832 119.71289 C 346.7436 118.65125 346.80255 117.18225 346.81445 115.96289 C 346.81145 115.82598 346.78321 115.69437 346.7832 115.55664 C 346.78308 114.43488 346.88532 113.34098 347.08008 112.2832 C 347.27484 111.22542 347.56162 110.20444 347.93164 109.23242 C 348.30166 108.2604 348.75364 107.33713 349.2793 106.47266 C 349.80496 105.60818 350.40472 104.80157 351.06641 104.06641 C 351.72809 103.33125 352.45237 102.66609 353.23047 102.08203 C 354.00857 101.49797 354.83996 100.99517 355.71484 100.58398 C 356.58973 100.1728 357.50887 99.853253 358.46094 99.636719 C 359.413 99.420185 360.39858 99.306743 361.4082 99.306641 z "
           style="fill:#ffffff;fill-opacity:1;stroke:#ffffff;stroke-width:0;stroke-miterlimit:4;stroke-opacity:0;stroke-dasharray:none" />
      </g>
    </g>
  </g>
</svg>
